<svg width="110" height="110" viewBox="0 0 110 110" fill="none" xmlns="http://www.w3.org/2000/svg">
<circle cx="55" cy="55" r="40" fill="#166224"/>
<g filter="url(#filter0_d_12_322)">
<circle cx="55" cy="55" r="35" fill="white"/>
</g>
<path d="M54.7692 66.2983C53.2351 66.2983 51.8714 66.0355 50.6783 65.5099C49.4922 64.9844 48.5547 64.2528 47.8658 63.3153C47.1768 62.3778 46.8111 61.2947 46.7685 60.0661H50.7741C50.8097 60.6555 51.005 61.1705 51.3601 61.6108C51.7152 62.044 52.1875 62.3814 52.777 62.6229C53.3665 62.8643 54.027 62.9851 54.7585 62.9851C55.5398 62.9851 56.2322 62.8501 56.8359 62.5803C57.4396 62.3033 57.9119 61.9197 58.2528 61.4297C58.5938 60.9396 58.7607 60.375 58.7536 59.7358C58.7607 59.0753 58.5902 58.4929 58.2422 57.9886C57.8942 57.4844 57.3899 57.0902 56.7294 56.8061C56.076 56.522 55.2876 56.38 54.3643 56.38H52.4361V53.3331H54.3643C55.1243 53.3331 55.7884 53.2017 56.3565 52.9389C56.9318 52.6761 57.3828 52.3068 57.7095 51.831C58.0362 51.348 58.196 50.7905 58.1889 50.1584C58.196 49.5405 58.0575 49.0043 57.7734 48.5497C57.4964 48.0881 57.1023 47.7294 56.5909 47.4737C56.0866 47.218 55.4936 47.0902 54.8118 47.0902C54.1442 47.0902 53.5263 47.2109 52.9581 47.4524C52.3899 47.6939 51.9318 48.0384 51.5838 48.4858C51.2358 48.9261 51.0511 49.4517 51.0298 50.0625H47.2266C47.255 48.8409 47.6065 47.7685 48.2812 46.8452C48.9631 45.9148 49.8722 45.1903 51.0085 44.6719C52.1449 44.1463 53.4197 43.8835 54.8331 43.8835C56.2891 43.8835 57.5533 44.157 58.6257 44.7038C59.7053 45.2436 60.5398 45.9716 61.1293 46.8878C61.7188 47.804 62.0135 48.8161 62.0135 49.924C62.0206 51.1527 61.6584 52.1825 60.9268 53.0135C60.2024 53.8445 59.2507 54.3878 58.0717 54.6435V54.8139C59.6058 55.027 60.7813 55.5952 61.598 56.5185C62.4219 57.4347 62.8303 58.5746 62.8232 59.9382C62.8232 61.1598 62.4751 62.2536 61.7791 63.2195C61.0902 64.1783 60.1385 64.9311 58.924 65.478C57.7166 66.0249 56.3317 66.2983 54.7692 66.2983Z" fill="#547B8C"/>
<defs>
<filter id="filter0_d_12_322" x="0" y="0" width="110" height="110" filterUnits="userSpaceOnUse" color-interpolation-filters="sRGB">
<feFlood flood-opacity="0" result="BackgroundImageFix"/>
<feColorMatrix in="SourceAlpha" type="matrix" values="0 0 0 0 0 0 0 0 0 0 0 0 0 0 0 0 0 0 127 0" result="hardAlpha"/>
<feOffset/>
<feGaussianBlur stdDeviation="10"/>
<feComposite in2="hardAlpha" operator="out"/>
<feColorMatrix type="matrix" values="0 0 0 0 0 0 0 0 0 0 0 0 0 0 0 0 0 0 0.2 0"/>
<feBlend mode="normal" in2="BackgroundImageFix" result="effect1_dropShadow_12_322"/>
<feBlend mode="normal" in="SourceGraphic" in2="effect1_dropShadow_12_322" result="shape"/>
</filter>
</defs>
</svg>
