<svg width="60" height="60" viewBox="0 0 60 60" fill="none" xmlns="http://www.w3.org/2000/svg">
<circle opacity="0.1" cx="30" cy="30" r="30" fill="#166224"/>
<path d="M33.2014 19.3662C34.651 19.6694 35.9832 20.4297 37.0275 21.5496C38.0719 22.6696 38.7808 24.0982 39.0636 25.6527L33.2014 19.3662ZM33.2014 13C36.2131 13.3588 39.0214 14.8051 41.1654 17.1014C43.3095 19.3977 44.6616 22.4076 45 25.6368L33.2014 13ZM43.5159 38.3373V43.1119C43.5176 43.5552 43.4329 43.9939 43.2673 44.4C43.1017 44.8061 42.8589 45.1707 42.5543 45.4704C42.2498 45.77 41.8902 45.9981 41.4986 46.1401C41.1071 46.2821 40.6922 46.3349 40.2806 46.295C35.7138 45.7628 31.327 44.0893 27.4728 41.409C23.887 38.9654 20.8468 35.7052 18.5682 31.8597C16.0601 27.7077 14.4992 22.9805 14.012 18.0611C13.975 17.621 14.0237 17.1774 14.1553 16.7586C14.2868 16.3398 14.4982 15.955 14.776 15.6286C15.0538 15.3022 15.392 15.0415 15.7689 14.8629C16.1458 14.6844 16.5533 14.592 16.9654 14.5915H21.4177C22.1379 14.5839 22.8362 14.8575 23.3823 15.3611C23.9284 15.8647 24.2851 16.5642 24.3859 17.329C24.5738 18.857 24.9223 20.3572 25.4248 21.8012C25.6244 22.3709 25.6676 22.99 25.5493 23.5851C25.4309 24.1803 25.1559 24.7266 24.7569 25.1594L22.8721 27.1806C24.9848 31.1651 28.0612 34.4642 31.7767 36.7298L33.6615 34.7086C34.065 34.2807 34.5744 33.9858 35.1294 33.8589C35.6844 33.7319 36.2617 33.7783 36.7929 33.9924C38.1394 34.5312 39.5384 34.9049 40.9633 35.1065C41.6842 35.2155 42.3426 35.6049 42.8132 36.2006C43.2839 36.7963 43.534 37.5568 43.5159 38.3373Z" stroke="#166224" stroke-width="2" stroke-linecap="round" stroke-linejoin="round"/>
</svg>
