<svg width="30" height="30" viewBox="0 0 30 30" fill="none" xmlns="http://www.w3.org/2000/svg">
<circle cx="15" cy="15" r="14.5" stroke="white"/>
<g clip-path="url(#clip0_12_262)">
<path d="M15.0001 10C13.641 10 13.4717 10.0066 12.9398 10.0291C12.4057 10.0553 12.0445 10.1381 11.7257 10.2619C11.3921 10.3878 11.09 10.585 10.8404 10.8397C10.585 11.0887 10.3877 11.391 10.2626 11.725C10.1389 12.0438 10.056 12.405 10.0298 12.9391C10.0057 13.4712 10.0007 13.6403 10.0007 14.9994C10.0007 16.3584 10.0073 16.5278 10.0298 17.0597C10.056 17.5922 10.1389 17.955 10.2626 18.2738C10.3886 18.6074 10.5857 18.9095 10.8404 19.1591C11.0894 19.4145 11.3917 19.6118 11.7257 19.7369C12.0445 19.8591 12.4073 19.9434 12.9398 19.9697C13.472 19.9937 13.641 19.9987 15.0001 19.9987C16.3592 19.9987 16.5285 19.9922 17.0604 19.9697C17.5929 19.9434 17.9557 19.8588 18.2745 19.7369C18.6081 19.6109 18.9102 19.4137 19.1598 19.1591C19.4155 18.9103 19.6129 18.608 19.7376 18.2738C19.8598 17.955 19.9442 17.5922 19.9704 17.0597C19.9945 16.5275 19.9995 16.3584 19.9995 14.9994C19.9995 13.6403 19.9929 13.4709 19.9704 12.9391C19.9442 12.4066 19.8595 12.0419 19.7376 11.725C19.6117 11.3914 19.4145 11.0893 19.1598 10.8397C18.9111 10.584 18.6087 10.3866 18.2745 10.2619C17.9557 10.1381 17.5929 10.0553 17.0604 10.0291C16.5282 10.005 16.3592 10 15.0001 10ZM15.0001 10.9C16.3348 10.9 16.4942 10.9066 17.0217 10.9291C17.5082 10.9519 17.7732 11.0331 17.9492 11.1019C18.1667 11.1822 18.3635 11.31 18.5254 11.4759C18.6911 11.6371 18.8184 11.8335 18.8979 12.0506C18.9667 12.2266 19.0479 12.4916 19.0707 12.9781C19.0932 13.5056 19.0998 13.6653 19.0998 14.9997C19.0998 16.3341 19.0932 16.4938 19.0689 17.0213C19.0426 17.5078 18.9614 17.7728 18.8929 17.9488C18.7982 18.1834 18.6926 18.3475 18.5182 18.525C18.3558 18.6899 18.1591 18.8171 17.942 18.8975C17.7682 18.9663 17.4995 19.0475 17.011 19.0703C16.4807 19.0928 16.3245 19.0994 14.9864 19.0994C13.6482 19.0994 13.4923 19.0928 12.9614 19.0684C12.4748 19.0422 12.2064 18.9609 12.0304 18.8925C11.7929 18.7978 11.6301 18.6922 11.4557 18.5178C11.2798 18.3419 11.1679 18.1744 11.0817 17.9416C11.0117 17.7678 10.9317 17.4991 10.9057 17.0106C10.8879 16.4866 10.8795 16.3241 10.8795 14.9922C10.8795 13.6609 10.8879 13.4981 10.9057 12.9675C10.9317 12.4791 11.0117 12.2109 11.0817 12.0366C11.1679 11.7988 11.2801 11.6363 11.4557 11.4603C11.6298 11.2862 11.7929 11.1738 12.0304 11.0856C12.2064 11.0172 12.4682 10.9359 12.9567 10.9116C13.487 10.8925 13.6432 10.8856 14.9795 10.8856L15.0001 10.9ZM15.0001 12.4334C14.663 12.4333 14.3292 12.4996 14.0178 12.6286C13.7063 12.7575 13.4234 12.9465 13.185 13.1849C12.9466 13.4232 12.7576 13.7062 12.6287 14.0177C12.4997 14.3291 12.4334 14.6629 12.4335 15C12.4334 15.3371 12.4997 15.6709 12.6287 15.9823C12.7576 16.2938 12.9466 16.5768 13.185 16.8151C13.4234 17.0535 13.7063 17.2425 14.0178 17.3714C14.3292 17.5004 14.663 17.5667 15.0001 17.5666C15.3372 17.5667 15.671 17.5004 15.9824 17.3714C16.2939 17.2425 16.5769 17.0535 16.8152 16.8151C17.0536 16.5768 17.2426 16.2938 17.3716 15.9823C17.5005 15.6709 17.5668 15.3371 17.5667 15C17.5668 14.6629 17.5005 14.3291 17.3716 14.0177C17.2426 13.7062 17.0536 13.4232 16.8152 13.1849C16.5769 12.9465 16.2939 12.7575 15.9824 12.6286C15.671 12.4996 15.3372 12.4333 15.0001 12.4334ZM15.0001 16.6666C14.0789 16.6666 13.3335 15.9212 13.3335 15C13.3335 14.0788 14.0789 13.3334 15.0001 13.3334C15.9214 13.3334 16.6667 14.0788 16.6667 15C16.6667 15.9212 15.9214 16.6666 15.0001 16.6666ZM18.2701 12.3309C18.2699 12.4902 18.2066 12.6429 18.0939 12.7555C17.9812 12.868 17.8284 12.9313 17.6692 12.9313C17.5904 12.9313 17.5124 12.9157 17.4397 12.8856C17.3669 12.8555 17.3008 12.8113 17.2451 12.7556C17.1894 12.6999 17.1453 12.6338 17.1151 12.5611C17.085 12.4883 17.0695 12.4103 17.0695 12.3316C17.0695 12.2528 17.085 12.1748 17.1151 12.1021C17.1453 12.0293 17.1894 11.9632 17.2451 11.9075C17.3008 11.8518 17.3669 11.8077 17.4397 11.7775C17.5124 11.7474 17.5904 11.7319 17.6692 11.7319C17.9995 11.7319 18.2701 12.0006 18.2701 12.3309Z" fill="white"/>
</g>
<defs>
<clipPath id="clip0_12_262">
<rect width="10" height="10" fill="white" transform="translate(10 10)"/>
</clipPath>
</defs>
</svg>
