<svg width="30" height="30" viewBox="0 0 30 30" fill="none" xmlns="http://www.w3.org/2000/svg">
<circle cx="15" cy="15" r="14.5" stroke="white"/>
<g clip-path="url(#clip0_12_258)">
<path d="M12.5837 18.75H10.7697V12.9081H12.5837V18.75ZM11.6756 12.1112C11.0956 12.1112 10.625 11.6306 10.625 11.0506C10.625 10.772 10.7357 10.5048 10.9327 10.3077C11.1298 10.1107 11.397 10 11.6756 10C11.9543 10 12.2215 10.1107 12.4185 10.3077C12.6156 10.5048 12.7262 10.772 12.7262 11.0506C12.7262 11.6306 12.2556 12.1112 11.6756 12.1112ZM19.3731 18.75H17.5631V15.9062C17.5631 15.2284 17.5494 14.3594 16.62 14.3594C15.6769 14.3594 15.5322 15.0956 15.5322 15.8575V18.75H13.72V12.9081H15.4597V13.705H15.485C15.7272 13.2459 16.3187 12.7616 17.2012 12.7616C19.0372 12.7616 19.3747 13.9706 19.3747 15.5409V18.75H19.3731Z" fill="white"/>
</g>
<defs>
<clipPath id="clip0_12_258">
<rect width="10" height="10" fill="white" transform="translate(10 10)"/>
</clipPath>
</defs>
</svg>
