<svg width="60" height="60" viewBox="0 0 60 60" fill="none" xmlns="http://www.w3.org/2000/svg">
<circle opacity="0.1" cx="30" cy="30" r="30" fill="#166224"/>
<path d="M30.5416 14.0415C28.4669 13.8777 26.384 14.2002 24.4346 14.9871C22.4851 15.774 20.7148 17.0068 19.2439 18.6016C17.773 20.1965 16.6361 22.1161 15.9104 24.2299C15.1847 26.3436 14.8872 28.6021 15.0382 30.8516C15.5603 39.1702 22.2606 45.4445 29.9469 45.4445H35.2984C36.0961 45.4445 36.7487 44.7369 36.7487 43.872C36.7487 43.0071 36.0961 42.2995 35.2984 42.2995H29.976C24.5665 42.2995 19.6066 38.494 18.2578 32.8172C16.0969 23.6967 23.9284 15.1894 32.3399 17.5482C37.5898 18.9949 41.0995 24.3729 41.0995 30.2383V31.9681C41.0995 33.2104 40.0698 34.4369 38.9241 34.4369C37.7784 34.4369 36.7487 33.2104 36.7487 31.9681V30.0024C36.7487 26.0554 34.1672 22.5016 30.5706 21.9512C29.4262 21.7667 28.2578 21.8813 27.1626 22.2854C26.0674 22.6895 25.077 23.3714 24.274 24.2744C23.471 25.1775 22.8785 26.2754 22.546 27.4769C22.2134 28.6784 22.1504 29.9486 22.3621 31.1818C22.6164 32.6678 23.2607 34.0427 24.2176 35.1416C25.1745 36.2406 26.4034 37.0169 27.7571 37.3775C30.4255 38.0537 32.9635 37.1259 34.6313 35.2861C35.922 37.2045 38.5035 38.2109 40.8674 37.1888C42.8108 36.3554 44 34.201 44 31.9366V30.2226C44 21.8726 38.2135 14.6076 30.5416 14.0415ZM29.4974 34.4369C27.0899 34.4369 25.1466 32.3298 25.1466 29.7194C25.1466 27.109 27.0899 25.0019 29.4974 25.0019C31.9048 25.0019 33.8482 27.109 33.8482 29.7194C33.8482 32.3298 31.9048 34.4369 29.4974 34.4369Z" fill="#166224"/>
</svg>
