<svg width="94" height="94" viewBox="0 0 94 94" fill="none" xmlns="http://www.w3.org/2000/svg">
<path d="M5.00001 47C5 70.196 23.804 89 47 89C70.196 89 89 70.196 89 47C89 23.804 70.196 5 47 5C23.804 5 5.00001 23.804 5.00001 47Z" fill="#F4BC41" stroke="white" stroke-width="10"/>
<path d="M46.2929 62.2121C46.6834 62.6026 47.3166 62.6026 47.7071 62.2121L54.0711 55.8482C54.4616 55.4576 54.4616 54.8245 54.0711 54.4339C53.6805 54.0434 53.0474 54.0434 52.6569 54.4339L47 60.0908L41.3431 54.4339C40.9526 54.0434 40.3195 54.0434 39.9289 54.4339C39.5384 54.8245 39.5384 55.4576 39.9289 55.8482L46.2929 62.2121ZM46 32.5416L46 61.505L48 61.505L48 32.5416L46 32.5416Z" fill="#2F4B8C"/>
</svg>
