<svg width="30" height="30" viewBox="0 0 30 30" fill="none" xmlns="http://www.w3.org/2000/svg">
<circle cx="15" cy="15" r="14.5" stroke="white"/>
<g clip-path="url(#clip0_12_270)">
<path d="M19.9802 11.904C19.6059 12.0685 19.2095 12.1772 18.8036 12.2265C19.2315 11.9697 19.5518 11.5666 19.7052 11.0918C19.3005 11.3265 18.8601 11.4932 18.4015 11.5852C18.093 11.2557 17.6845 11.0371 17.2392 10.9635C16.7938 10.8899 16.3367 10.9653 15.9386 11.178C15.5405 11.3907 15.2237 11.7289 15.0375 12.14C14.8512 12.5511 14.8058 13.0122 14.9083 13.4518C13.2043 13.3721 11.6936 12.5533 10.6833 11.3165C10.4994 11.6292 10.4032 11.9858 10.4049 12.3487C10.4046 12.686 10.4877 13.0181 10.6467 13.3156C10.8056 13.6131 11.0356 13.8667 11.3161 14.054C10.991 14.0441 10.673 13.9566 10.3886 13.7987V13.8233C10.3885 14.2968 10.5521 14.7557 10.8517 15.1223C11.1513 15.4889 11.5684 15.7407 12.0324 15.8349C11.8566 15.8819 11.6756 15.9059 11.4936 15.9065C11.3621 15.9065 11.2365 15.8937 11.1111 15.8705C11.2432 16.2779 11.499 16.6341 11.8429 16.8893C12.1868 17.1445 12.6017 17.2862 13.0299 17.2946C12.3044 17.8628 11.4092 18.171 10.4877 18.1699C10.3245 18.1706 10.1614 18.1614 9.99927 18.1424C10.9393 18.7447 12.0325 19.0645 13.149 19.0637C16.9199 19.0637 18.9805 15.9402 18.9805 13.2352C18.9805 13.149 18.9805 13.0612 18.974 12.973C19.377 12.6841 19.7244 12.3246 19.9993 11.9118L19.9802 11.904Z" fill="white"/>
</g>
<defs>
<clipPath id="clip0_12_270">
<rect width="10" height="10" fill="white" transform="translate(10 10)"/>
</clipPath>
</defs>
</svg>
